<?xml version="1.0" standalone="no"?><!-- Generator: Gravit.io --><svg xmlns="http://www.w3.org/2000/svg" xmlns:xlink="http://www.w3.org/1999/xlink" style="isolation:isolate" viewBox="0 0 692.918 180" width="692.918" height="180"><defs><clipPath id="_clipPath_qKolSJojl5VZDIAcmFBhhKK8OGwwlS7m"><rect width="692.918" height="180"/></clipPath></defs><g clip-path="url(#_clipPath_qKolSJojl5VZDIAcmFBhhKK8OGwwlS7m)"><g id="Group"><path d=" M 60.001 105.359 C 65.894 108.751 70.999 113.692 74.641 120 C 85.679 139.119 79.119 163.602 60 174.64 L 60 174.64 C 40.881 185.679 16.398 179.118 5.36 160 C -5.679 140.881 0.882 116.397 20 105.359 L 20 105.359 L 141.243 35.359 L 141.29 35.332 L 141.29 35.332 C 150.842 29.851 163.053 33.136 168.564 42.68 L 133.923 62.68 L 60.001 105.359 Z  M 50 157.32 C 40.441 162.839 28.199 159.559 22.68 150 C 17.161 140.44 20.441 128.198 30 122.679 C 39.56 117.16 51.802 120.44 57.321 130 C 62.84 139.559 59.56 151.801 50 157.32 L 50 157.32 Z " fill-rule="evenodd" fill="rgb(142,68,173)"/><path d=" M 60.001 74.641 C 65.894 71.249 70.999 66.308 74.641 60 C 85.679 40.881 79.119 16.398 60 5.36 L 60 5.36 C 40.881 -5.679 16.398 0.882 5.36 20 C -5.679 39.119 0.882 63.603 20 74.641 L 20 74.641 L 141.243 144.641 L 141.29 144.668 L 141.29 144.668 C 150.842 150.149 163.053 146.864 168.564 137.32 L 133.923 117.32 L 60.001 74.641 Z  M 50 22.68 C 40.441 17.161 28.199 20.441 22.68 30 C 17.161 39.56 20.441 51.802 30 57.321 C 39.56 62.84 51.802 59.56 57.321 50 C 62.84 40.441 59.56 28.199 50 22.68 L 50 22.68 Z " fill-rule="evenodd" fill="rgb(142,68,173)"/></g><path d=" M 269.267 32.68 L 269.267 32.68 Q 273.489 32.68 276.087 35.44 L 276.087 35.44 L 276.087 35.44 Q 278.685 38.201 278.685 42.585 L 278.685 42.585 L 278.685 101.367 L 278.685 101.367 Q 278.685 114.844 273.002 125.237 L 273.002 125.237 L 273.002 125.237 Q 267.318 135.629 257.088 141.475 L 257.088 141.475 L 257.088 141.475 Q 246.858 147.32 233.705 147.32 L 233.705 147.32 L 233.705 147.32 Q 220.553 147.32 210.241 141.475 L 210.241 141.475 L 210.241 141.475 Q 199.93 135.629 194.247 125.237 L 194.247 125.237 L 194.247 125.237 Q 188.564 114.844 188.564 101.367 L 188.564 101.367 L 188.564 42.585 L 188.564 42.585 Q 188.564 38.363 191.486 35.521 L 191.486 35.521 L 191.486 35.521 Q 194.409 32.68 198.956 32.68 L 198.956 32.68 L 198.956 32.68 Q 202.853 32.68 205.776 35.521 L 205.776 35.521 L 205.776 35.521 Q 208.699 38.363 208.699 42.585 L 208.699 42.585 L 208.699 101.367 L 208.699 101.367 Q 208.699 109.161 212.109 115.25 L 212.109 115.25 L 212.109 115.25 Q 215.519 121.339 221.283 124.587 L 221.283 124.587 L 221.283 124.587 Q 227.048 127.835 233.705 127.835 L 233.705 127.835 L 233.705 127.835 Q 240.688 127.835 246.777 124.587 L 246.777 124.587 L 246.777 124.587 Q 252.866 121.339 256.52 115.25 L 256.52 115.25 L 256.52 115.25 Q 260.173 109.161 260.173 101.367 L 260.173 101.367 L 260.173 42.585 L 260.173 42.585 Q 260.173 38.201 262.609 35.44 L 262.609 35.44 L 262.609 35.44 Q 265.045 32.68 269.267 32.68 L 269.267 32.68 Z  M 377.737 32.842 L 377.737 32.842 Q 382.121 32.842 384.882 35.44 L 384.882 35.44 L 384.882 35.44 Q 387.642 38.038 387.642 42.26 L 387.642 42.26 L 387.642 42.26 Q 387.642 46.482 384.882 48.999 L 384.882 48.999 L 384.882 48.999 Q 382.121 51.516 377.737 51.516 L 377.737 51.516 L 352.243 51.516 L 352.243 136.603 L 352.243 136.603 Q 352.243 140.825 349.158 143.667 L 349.158 143.667 L 349.158 143.667 Q 346.073 146.509 341.526 146.509 L 341.526 146.509 L 341.526 146.509 Q 336.98 146.509 334.057 143.667 L 334.057 143.667 L 334.057 143.667 Q 331.134 140.825 331.134 136.603 L 331.134 136.603 L 331.134 51.516 L 305.64 51.516 L 305.64 51.516 Q 301.256 51.516 298.495 48.918 L 298.495 48.918 L 298.495 48.918 Q 295.735 46.32 295.735 42.098 L 295.735 42.098 L 295.735 42.098 Q 295.735 38.038 298.577 35.44 L 298.577 35.44 L 298.577 35.44 Q 301.418 32.842 305.64 32.842 L 305.64 32.842 L 377.737 32.842 Z  M 479.388 32.842 L 479.388 32.842 Q 483.772 32.842 486.532 35.44 L 486.532 35.44 L 486.532 35.44 Q 489.293 38.038 489.293 42.26 L 489.293 42.26 L 489.293 42.26 Q 489.293 46.482 486.532 48.999 L 486.532 48.999 L 486.532 48.999 Q 483.772 51.516 479.388 51.516 L 479.388 51.516 L 453.894 51.516 L 453.894 136.603 L 453.894 136.603 Q 453.894 140.825 450.809 143.667 L 450.809 143.667 L 450.809 143.667 Q 447.723 146.509 443.177 146.509 L 443.177 146.509 L 443.177 146.509 Q 438.63 146.509 435.707 143.667 L 435.707 143.667 L 435.707 143.667 Q 432.784 140.825 432.784 136.603 L 432.784 136.603 L 432.784 51.516 L 407.29 51.516 L 407.29 51.516 Q 402.906 51.516 400.146 48.918 L 400.146 48.918 L 400.146 48.918 Q 397.385 46.32 397.385 42.098 L 397.385 42.098 L 397.385 42.098 Q 397.385 38.038 400.227 35.44 L 400.227 35.44 L 400.227 35.44 Q 403.069 32.842 407.29 32.842 L 407.29 32.842 L 479.388 32.842 Z  M 570.646 127.835 L 570.646 127.835 Q 574.867 127.835 577.709 130.676 L 577.709 130.676 L 577.709 130.676 Q 580.551 133.518 580.551 137.253 L 580.551 137.253 L 580.551 137.253 Q 580.551 141.312 577.709 143.91 L 577.709 143.91 L 577.709 143.91 Q 574.867 146.509 570.646 146.509 L 570.646 146.509 L 516.248 146.509 L 516.248 146.509 Q 512.026 146.509 509.184 143.667 L 509.184 143.667 L 509.184 143.667 Q 506.343 140.825 506.343 136.603 L 506.343 136.603 L 506.343 42.747 L 506.343 42.747 Q 506.343 38.525 509.184 35.684 L 509.184 35.684 L 509.184 35.684 Q 512.026 32.842 516.248 32.842 L 516.248 32.842 L 570.646 32.842 L 570.646 32.842 Q 574.867 32.842 577.709 35.521 L 577.709 35.521 L 577.709 35.521 Q 580.551 38.201 580.551 42.422 L 580.551 42.422 L 580.551 42.422 Q 580.551 46.482 577.79 48.999 L 577.79 48.999 L 577.79 48.999 Q 575.03 51.516 570.646 51.516 L 570.646 51.516 L 526.64 51.516 L 526.64 79.12 L 563.338 79.12 L 563.338 79.12 Q 567.56 79.12 570.402 81.8 L 570.402 81.8 L 570.402 81.8 Q 573.244 84.479 573.244 88.701 L 573.244 88.701 L 573.244 88.701 Q 573.244 92.76 570.483 95.277 L 570.483 95.277 L 570.483 95.277 Q 567.723 97.794 563.338 97.794 L 563.338 97.794 L 526.64 97.794 L 526.64 127.835 L 570.646 127.835 Z  M 688.372 130.595 L 688.372 130.595 Q 690.483 131.894 691.7 134.005 L 691.7 134.005 L 691.7 134.005 Q 692.918 136.116 692.918 138.389 L 692.918 138.389 L 692.918 138.389 Q 692.918 141.312 690.97 143.748 L 690.97 143.748 L 690.97 143.748 Q 688.534 146.671 683.5 146.671 L 683.5 146.671 L 683.5 146.671 Q 679.603 146.671 676.356 144.885 L 676.356 144.885 L 676.356 144.885 Q 664.664 138.227 664.664 117.767 L 664.664 117.767 L 664.664 117.767 Q 664.664 111.921 660.848 108.511 L 660.848 108.511 L 660.848 108.511 Q 657.032 105.101 649.887 105.101 L 649.887 105.101 L 619.522 105.101 L 619.522 136.603 L 619.522 136.603 Q 619.522 140.988 617.168 143.748 L 617.168 143.748 L 617.168 143.748 Q 614.813 146.509 610.916 146.509 L 610.916 146.509 L 610.916 146.509 Q 606.207 146.509 602.716 143.667 L 602.716 143.667 L 602.716 143.667 Q 599.225 140.825 599.225 136.603 L 599.225 136.603 L 599.225 42.747 L 599.225 42.747 Q 599.225 38.525 602.066 35.684 L 602.066 35.684 L 602.066 35.684 Q 604.908 32.842 609.13 32.842 L 609.13 32.842 L 655.896 32.842 L 655.896 32.842 Q 664.339 32.842 671.809 37.389 L 671.809 37.389 L 671.809 37.389 Q 679.278 41.935 683.744 49.892 L 683.744 49.892 L 683.744 49.892 Q 688.209 57.849 688.209 67.754 L 688.209 67.754 L 688.209 67.754 Q 688.209 75.873 683.825 83.586 L 683.825 83.586 L 683.825 83.586 Q 679.441 91.299 672.458 95.846 L 672.458 95.846 L 672.458 95.846 Q 682.688 102.99 683.663 115.007 L 683.663 115.007 L 683.663 115.007 Q 684.15 117.605 684.15 120.04 L 684.15 120.04 L 684.15 120.04 Q 684.799 125.074 685.449 127.266 L 685.449 127.266 L 685.449 127.266 Q 686.098 129.459 688.372 130.595 L 688.372 130.595 Z  M 655.084 88.376 L 655.084 88.376 Q 658.006 88.376 660.767 85.616 L 660.767 85.616 L 660.767 85.616 Q 663.527 82.855 665.314 78.227 L 665.314 78.227 L 665.314 78.227 Q 667.1 73.6 667.1 68.241 L 667.1 68.241 L 667.1 68.241 Q 667.1 63.694 665.314 59.878 L 665.314 59.878 L 665.314 59.878 Q 663.527 56.062 660.767 53.789 L 660.767 53.789 L 660.767 53.789 Q 658.006 51.516 655.084 51.516 L 655.084 51.516 L 619.522 51.516 L 619.522 88.376 L 655.084 88.376 Z " fill-rule="evenodd" fill="rgb(52,73,94)"/></g></svg>