<?xml version="1.0" standalone="no"?><!-- Generator: Gravit.io --><svg xmlns="http://www.w3.org/2000/svg" xmlns:xlink="http://www.w3.org/1999/xlink" style="isolation:isolate" viewBox="0 0 168.564 180" width="168.564" height="180"><defs><clipPath id="_clipPath_NEjf5QqIPkX6MGcjXUcXUWf4Tw2MlrdU"><rect width="168.564" height="180"/></clipPath></defs><g clip-path="url(#_clipPath_NEjf5QqIPkX6MGcjXUcXUWf4Tw2MlrdU)"><g id="Group"><path d=" M 60.001 105.359 C 65.894 108.751 70.999 113.692 74.641 120 C 85.679 139.119 79.119 163.602 60 174.64 L 60 174.64 C 40.881 185.679 16.398 179.118 5.36 160 C -5.679 140.881 0.882 116.397 20 105.359 L 20 105.359 L 141.243 35.359 L 141.29 35.332 L 141.29 35.332 C 150.842 29.851 163.053 33.136 168.564 42.68 L 133.923 62.68 L 60.001 105.359 Z  M 50 157.32 C 40.441 162.839 28.199 159.559 22.68 150 C 17.161 140.44 20.441 128.198 30 122.679 C 39.56 117.16 51.802 120.44 57.321 130 C 62.84 139.559 59.56 151.801 50 157.32 L 50 157.32 Z " fill-rule="evenodd" fill="rgb(142,68,173)"/><path d=" M 60.001 74.641 C 65.894 71.249 70.999 66.308 74.641 60 C 85.679 40.881 79.119 16.398 60 5.36 L 60 5.36 C 40.881 -5.679 16.398 0.882 5.36 20 C -5.679 39.119 0.882 63.603 20 74.641 L 20 74.641 L 141.243 144.641 L 141.29 144.668 L 141.29 144.668 C 150.842 150.149 163.053 146.864 168.564 137.32 L 133.923 117.32 L 60.001 74.641 Z  M 50 22.68 C 40.441 17.161 28.199 20.441 22.68 30 C 17.161 39.56 20.441 51.802 30 57.321 C 39.56 62.84 51.802 59.56 57.321 50 C 62.84 40.441 59.56 28.199 50 22.68 L 50 22.68 Z " fill-rule="evenodd" fill="rgb(142,68,173)"/></g></g></svg>